<?xml version="1.0" standalone="no"?><!DOCTYPE svg PUBLIC "-//W3C//DTD SVG 1.1//EN" "http://www.w3.org/Graphics/SVG/1.1/DTD/svg11.dtd"><svg t="1780484020911" class="icon" viewBox="0 0 1024 1024" version="1.1" xmlns="http://www.w3.org/2000/svg" p-id="19829" xmlns:xlink="http://www.w3.org/1999/xlink" width="200" height="200"><path d="M404.911861 395.069756l95.59708 115.51847 281.544278-330.72921c14.930378-19.836074 21.926327-30.287339 14.930378-47.137337a51.360502 51.360502 0 0 0-44.791135-31.567086 40.184047 40.184047 0 0 0-30.03139 11.091138L404.911861 395.027098z" fill="#BDB9B4" p-id="19830"></path><path d="M657.021964 450.312156L209.579854 21.127765A59.593539 59.593539 0 0 0 174.472136 0.011944c-18.769619-0.426582-35.918225 10.57924-43.340756 27.855821-7.038607 16.892657-1.962278 28.708985 13.479999 50.891261l356.025537 432.042491-264.992887 325.482249c-14.077214 14.503796-19.238859 35.448984-13.650632 54.858475 7.337215 17.745821 24.699112 29.263542 43.895313 29.135567a41.847718 41.847718 0 0 0 31.567085-15.399618l359.352878-334.141868c35.704933-32.121643 35.832908-88.131891 0.25595-120.424166z" fill="#B31B1B" p-id="19831"></path><path d="M859.307262 943.355907l-359.608827-433.450213-95.554422-115.475812-58.612399 52.896198a87.022777 87.022777 0 0 0 0 125.073913l456.101729 439.550338c8.105063 8.446328 19.622783 12.797467 31.311137 11.901645 17.916454-0.298608 33.785313-11.432404 40.184047-28.154428 5.28962-18.684302 0-38.733667-13.821265-52.341641z" fill="#BDB9B4" p-id="19832"></path></svg>